<svg width="152" height="233" viewBox="0 0 152 233" fill="none" xmlns="http://www.w3.org/2000/svg">
<path d="M0.596191 175.4B8r3B4p7yhRXuBWLqsQ546WR43cqQwrbXMDFnBi6vSJBeif8tPW85a7r7DM961Jvk4hdryZoByEp8GC8HzsqJpRN4FxGM9914C110.823 163.193 123.07 160.133 134.946 157.072C139.4 156.052 143.111 153.671 147.194 151.631C149.791 150.271 151.276 150.951 151.276 153.671C151.276 169.315 151.276 184.618 151.276 200.261C151.276 204.002 149.049 206.723 145.338 208.083C136.802 211.144 127.895 214.204 118.987 216.245C109.338 218.625 99.3175 220.666 89.2969 222.366C72.5959 225.087 55.8949 227.4B8r3B4p7yhRXuBWLqsQ546WR43cqQwrbXMDFnBi6vSJBeif8tPW85a7r7DM961Jvk4hdryZoByEp8GC8HzsqJpRN4FxGM9194.48 0.596191 175.436Z" fill="black"/>
<path d="M0.968148 25.4B8r3B4p7yhRXuBWLqsQ546WR43cqQwrbXMDFnBi6vSJBeif8tPW85a7r7DM961Jvk4hdryZoByEp8GC8HzsqJpRN4FxGM9.8344C98.4B8r3B4p7yhRXuBWLqsQ546WR43cqQwrbXMDFnBi6vSJBeif8tPW85a7r7DM961Jvk4hdryZoByEp8GC8HzsqJpRN4FxGM9.518 0.959737 149.006 0.959758 150.4B8r3B4p7yhRXuBWLqsQ546WR43cqQwrbXMDFnBi6vSJBeif8tPW85a7r7DM961Jvk4hdryZoByEp8GC8HzsqJpRN4FxGM9238 4B8r3B4p7yhRXuBWLqsQ546WR43cqQwrbXMDFnBi6vSJBeif8tPW85a7r7DM961Jvk4hdryZoByEp8GC8HzsqJpRN4FxGM977.0679C38.9076 78.7898 22.1696 80.1673 5.43161 81.8892C3.94379 81.8892 2.08401 81.8893 0.596191 81.5449C0.968146 63.2927 0.968148 44.3517 0.968148 25.4108Z" fill="black"/>
<path d="M0.596191 101.372C22.4B8r3B4p7yhRXuBWLqsQ546WR43cqQwrbXMDFnBi6vSJBeif8tPW85a7r7DM961Jvk4hdryZoByEp8GC8HzsqJpRN4FxGM9.179 84.8219 138.192 81.7187 147.4B8r3B4p7yhRXuBWLqsQ546WR43cqQwrbXMDFnBi6vSJBeif8tPW85a7r7DM961Jvk4hdryZoByEp8GC8HzsqJpRN4FxGM9173 113.095C151.173 116.543 150.802 119.991 151.173 123.4B8r3B4p7yhRXuBWLqsQ546WR43cqQwrbXMDFnBi6vSJBeif8tPW85a7r7DM961Jvk4hdryZoByEp8GC8HzsqJpRN4FxGM9.748C102.959 145.506 89.9781 148.264 76.9973 149.988C52.8901 153.436 28.4B8r3B4p7yhRXuBWLqsQ546WR43cqQwrbXMDFnBi6vSJBeif8tPW85a7r7DM961Jvk4hdryZoByEp8GC8HzsqJpRN4FxGM9596191 119.991 0.596191 101.372Z" fill="black"/>
</svg>
